<svg width="23" height="23" viewBox="0 0 23 23" fill="none" xmlns="http://www.w3.org/2000/svg">
<path d="M1.58579 18.5858C0.804738 19.3668 0.804738 20.6332 1.58579 21.4142C2.36684 22.1953 3.63316 22.1953 4.41421 21.4142L1.58579 18.5858ZM22.3333 2.66667C22.3333 1.5621 21.4379 0.666665 20.3333 0.666666L2.33333 0.666666C1.22876 0.666666 0.333335 1.5621 0.333335 2.66667C0.333335 3.77124 1.22876 4.66667 2.33333 4.66667L18.3333 4.66667L18.3333 20.6667C18.3333 21.7712 19.2288 22.6667 20.3333 22.6667C21.4379 22.6667 22.3333 21.7712 22.3333 20.6667L22.3333 2.66667ZM4.41421 21.4142L21.7475 4.08088L18.9191 1.25245L1.58579 18.5858L4.41421 21.4142Z" fill="white"/>
</svg>
