<svg width="54" height="54" viewBox="0 0 54 54" fill="none" xmlns="http://www.w3.org/2000/svg">
<path d="M53.1391 25.1172C52.4753 14.1391 45.3309 4.94516 35.5353 1.39369C35.3362 1.31901 35.1619 1.5638 35.2988 1.72976C39.4353 6.74164 42.1902 15.2345 42.4598 25.1421C42.4598 25.2582 42.5553 25.3495 42.6714 25.3495H52.9192C53.0437 25.3495 53.1433 25.2458 53.135 25.1213L53.1391 25.1172Z" fill="#18306C"/>
<path d="M17.1806 1.55624C7.60909 5.21558 0.663823 14.3017 0.00829605 25.1179C-1.76672e-06 25.2424 0.0995722 25.3461 0.224039 25.3461H10.1773C10.2934 25.3461 10.3847 25.2548 10.3889 25.1386C10.6544 15.3348 13.3595 6.92078 17.4254 1.88816C17.5623 1.7222 17.3839 1.47741 17.1848 1.55624H17.1806Z" fill="#18306C"/>
<path d="M24.856 0.00190556C18.6907 1.58264 13.683 12.3076 13.293 25.1235C13.293 25.2439 13.3884 25.3476 13.5087 25.3476H24.9099C25.0261 25.3476 25.1215 25.2522 25.1215 25.136V0.217649C25.1215 0.080735 24.9929 -0.0271375 24.856 0.00605378V0.00190556Z" fill="#18306C"/>
<path d="M25.1175 53.2743V28.4596C25.1175 28.3435 25.0221 28.248 24.9059 28.248H13.5088C13.3885 28.248 13.2889 28.3476 13.2931 28.4721C13.708 41.2383 18.7033 51.9134 24.852 53.49C24.9847 53.5232 25.1175 53.4195 25.1175 53.2784V53.2743Z" fill="#18306C"/>
<path d="M0.000483548 28.4757C0.66016 39.3376 7.65937 48.4527 17.2931 52.083C17.4964 52.1577 17.6707 51.9171 17.5338 51.7511C13.4181 46.7517 10.6673 38.3128 10.3811 28.455C10.3811 28.3388 10.2856 28.2476 10.1695 28.2476H0.216227C0.0917597 28.2476 -0.00781427 28.3513 0.000483548 28.4757Z" fill="#18306C"/>
<path d="M28.2892 53.3917C34.2968 51.5454 39.1345 41.0238 39.5452 28.4692C39.5452 28.3488 39.4498 28.2451 39.3295 28.2451H28.2311C28.115 28.2451 28.0195 28.3405 28.0195 28.4567V53.1801C28.0195 53.3211 28.1564 53.429 28.2934 53.3875L28.2892 53.3917Z" fill="#18306C"/>
<path d="M28.0159 0.304074V25.1311C28.0159 25.2473 28.1113 25.3427 28.2275 25.3427H39.3299C39.4503 25.3427 39.5498 25.2432 39.5457 25.1187C39.1598 12.5185 34.3139 1.94289 28.2855 0.0924792C28.1486 0.0509901 28.0117 0.158862 28.0117 0.299925L28.0159 0.304074Z" fill="#18306C"/>
<path d="M35.3879 52.2507C45.254 48.7366 52.4606 39.5053 53.1286 28.4733C53.1369 28.3488 53.0373 28.2451 52.9129 28.2451H42.6609C42.5447 28.2451 42.4535 28.3364 42.4493 28.4526C42.1589 38.4224 39.3501 46.9401 35.1555 51.9146C35.0186 52.0806 35.1846 52.3254 35.3879 52.2507Z" fill="#18306C"/>
</svg>
