<svg width="137" height="25" viewBox="0 0 137 25" fill="none" xmlns="http://www.w3.org/2000/svg">
<g id="Group 738002451">
<g id="Group 738002450">
<path id="Vector" d="M108.121 11.9888C107.82 7.01621 104.584 2.85173 100.147 1.24307C100.057 1.20925 99.9777 1.32012 100.04 1.39529C101.913 3.66546 103.161 7.51234 103.283 12.0001C103.283 12.0527 103.327 12.094 103.379 12.094H108.021C108.077 12.094 108.122 12.047 108.119 11.9907L108.121 11.9888Z" fill="white"/>
<path id="Vector_2" d="M91.8352 1.31696C87.4997 2.97448 84.3538 7.0901 84.0569 11.9894C84.0531 12.0458 84.0982 12.0927 84.1546 12.0927H88.663C88.7156 12.0927 88.7569 12.0514 88.7588 11.9988C88.8791 7.55804 90.1044 3.74686 91.9461 1.4673C92.0081 1.39213 91.9273 1.28125 91.8371 1.31696H91.8352Z" fill="white"/>
<path id="Vector_3" d="M95.3118 0.613168C92.5192 1.32917 90.2509 6.1871 90.0742 11.9922C90.0742 12.0467 90.1174 12.0937 90.1719 12.0937H95.3362C95.3888 12.0937 95.432 12.0505 95.432 11.9978V0.71089C95.432 0.648874 95.3738 0.600013 95.3118 0.615047V0.613168Z" fill="white"/>
<path id="Vector_4" d="M95.4302 24.7425V13.5026C95.4302 13.45 95.387 13.4067 95.3344 13.4067H90.172C90.1175 13.4067 90.0724 13.4518 90.0743 13.5082C90.2622 19.2908 92.5249 24.1261 95.3099 24.8403C95.3701 24.8553 95.4302 24.8083 95.4302 24.7444V24.7425Z" fill="white"/>
<path id="Vector_5" d="M84.0549 13.5101C84.3537 18.43 87.5241 22.5588 91.8877 24.2032C91.9798 24.237 92.0587 24.128 91.9967 24.0528C90.1325 21.7883 88.8865 17.9659 88.7569 13.5007C88.7569 13.4481 88.7136 13.4067 88.661 13.4067H84.1526C84.0963 13.4067 84.0511 13.4537 84.0549 13.5101Z" fill="white"/>
<path id="Vector_6" d="M96.8702 24.7961C99.5914 23.9598 101.783 19.1939 101.969 13.5072C101.969 13.4527 101.925 13.4058 101.871 13.4058H96.8439C96.7913 13.4058 96.748 13.449 96.748 13.5016V24.7002C96.748 24.7641 96.8101 24.813 96.8721 24.7942L96.8702 24.7961Z" fill="white"/>
<path id="Vector_7" d="M96.746 0.750303V11.9959C96.746 12.0485 96.7892 12.0917 96.8419 12.0917H101.871C101.925 12.0917 101.97 12.0466 101.969 11.9903C101.794 6.2829 99.5988 1.49262 96.8682 0.65446C96.8062 0.635667 96.7441 0.684528 96.7441 0.748424L96.746 0.750303Z" fill="white"/>
<path id="Vector_8" d="M100.087 24.2793C104.556 22.6875 107.82 18.5061 108.123 13.5091C108.126 13.4527 108.081 13.4058 108.025 13.4058H103.381C103.329 13.4058 103.287 13.4471 103.285 13.4997C103.154 18.0156 101.882 21.8738 99.9817 24.127C99.9196 24.2022 99.9948 24.3131 100.087 24.2793Z" fill="white"/>
</g>
<path id="Vector_9" d="M24.2312 12.7279C24.2312 6.04679 18.7968 0.612305 12.1156 0.612305C5.43448 0.612305 0 6.04679 0 12.7279C0 19.4091 5.43448 24.8435 12.1156 24.8435C18.7968 24.8435 24.2312 19.4091 24.2312 12.7279ZM12.1156 20.1477C8.02471 20.1477 4.69589 16.8188 4.69589 12.7279C4.69589 8.63701 8.02471 5.30819 12.1156 5.30819C16.2065 5.30819 19.5354 8.63701 19.5354 12.7279C19.5354 16.8188 16.2065 20.1477 12.1156 20.1477Z" fill="white"/>
<path id="Vector_10" d="M36.3415 24.5332H41.0118V5.5063H49.3943V1.23389H27.959V5.5063H36.3415V24.5332Z" fill="white"/>
<path id="Vector_11" d="M60.0119 0.922852H55.2969V24.5328H60.0119V14.5877H72.637V24.5328H77.3535V0.922852H72.637V10.4891H60.0119V0.922852Z" fill="white"/>
<path id="Vector_12" d="M132.58 17.8303L119.535 0.923096H114.943V24.533H119.365V7.66121L132.409 24.533H137V0.923096H132.58V17.8303Z" fill="white"/>
</g>
</svg>
