<svg width="22" height="23" viewBox="0 0 22 23" fill="none" xmlns="http://www.w3.org/2000/svg">
<path d="M2 10C1.17157 10 0.5 10.6716 0.5 11.5C0.5 12.3284 1.17157 13 2 13V10ZM21.4454 12.5607C22.0312 11.9749 22.0312 11.0251 21.4454 10.4393L11.8995 0.893398C11.3137 0.307611 10.364 0.307611 9.77818 0.893398C9.19239 1.47919 9.19239 2.42893 9.77818 3.01472L18.2635 11.5L9.77818 19.9853C9.19239 20.5711 9.19239 21.5208 9.77818 22.1066C10.364 22.6924 11.3137 22.6924 11.8995 22.1066L21.4454 12.5607ZM2 13L20.3848 13V10L2 10V13Z" fill="#F2683C"/>
</svg>
