<!-- Generated by IcoMoon.io -->
<svg version="1.1" xmlns="http://www.w3.org/2000/svg" width="32" height="32" viewBox="0 0 32 32">
<path fill="none" stroke-linejoin="miter" stroke-linecap="butt" stroke-miterlimit="4" stroke-width="1.1429" stroke="#000" d="M31.429 16c0 8.521-6.908 15.429-15.429 15.429s-15.429-6.908-15.429-15.429c0-8.521 6.908-15.429 15.429-15.429s15.429 6.908 15.429 15.429z"></path>
<path d="M12.768 12.531l7.273 7.273c0.223 0.223 0.223 0.585 0 0.808s-0.585 0.223-0.808 0l-7.273-7.273c-0.223-0.223-0.223-0.585 0-0.808s0.585-0.223 0.808 0z"></path>
<path d="M11.96 19.804l7.273-7.273c0.223-0.223 0.585-0.223 0.808 0s0.223 0.585 0 0.808l-7.273 7.273c-0.223 0.223-0.585 0.223-0.808 0s-0.223-0.585 0-0.808z"></path>
</svg>
